<svg width="223" height="332" viewBox="0 0 223 332" fill="none" xmlns="http://www.w3.org/2000/svg">
<path d="M122.024 312.614C121.649 312.86 121.205 313.044 120.916 313.366C120.371 313.962 119.703 314.177 118.946 314.218C118.493 314.244 118.037 314.247 117.582 314.243C113.494 314.199 109.406 314.151 105.318 314.101C104.977 314.101 104.636 314.09 104.295 314.062C103.148 313.965 102.164 313.66 101.93 312.308C101.895 312.102 101.731 311.902 101.589 311.732C101.067 311.102 100.364 311.124 99.8845 311.796C99.6782 312.067 99.5151 312.369 99.4012 312.69C98.7474 314.767 98.4252 316.856 98.8165 319.057C99.2895 321.711 100.198 324.178 101.414 326.57C102.453 328.616 104.136 329.618 106.312 329.697C109.484 329.814 112.665 329.754 115.842 329.775C115.996 329.787 116.149 329.812 116.299 329.848C116.402 330.194 116.165 330.288 115.97 330.381C115.239 330.735 114.453 330.835 113.652 330.849C111.094 330.896 108.542 330.911 105.989 330.996C102.821 331.102 100.903 329.367 99.6595 326.71C99.1335 325.586 98.8429 324.353 98.4235 323.177C97.4091 320.326 97.0852 317.32 96.4169 314.392C95.9251 312.236 95.3259 310.105 94.7479 307.971C94.4666 306.93 94.1026 305.912 93.8196 304.872C93.5801 303.99 93.9134 303.608 94.8545 303.605C95.0254 303.597 95.1968 303.606 95.3659 303.632C98.3493 304.229 101.361 303.98 104.362 303.985C105.777 303.985 107.196 303.861 108.607 303.734C109.393 303.664 110.166 303.455 110.95 303.341C111.609 303.245 112.151 302.992 112.452 302.37C112.856 301.535 113.564 301.347 114.419 301.313C117.198 301.204 119.975 301.069 122.752 300.909C124.564 300.805 126.376 300.67 128.184 300.516C129.92 300.368 131.384 299.646 132.314 298.145C133.629 296.024 134.872 293.856 136.101 291.686C136.376 291.201 136.541 290.638 136.668 290.09C136.795 289.542 136.421 289.073 135.848 289.045C135.166 289.012 134.484 289.03 133.802 289.034C133.058 289.039 132.523 289.356 132.143 290.023C131.869 290.508 131.476 290.926 131.164 291.394C130.946 291.718 130.756 292.06 130.596 292.417C130.113 293.506 129.499 294.533 128.767 295.475C128.233 296.164 127.614 296.694 126.709 296.877C126.212 296.99 125.741 297.198 125.323 297.49C124.547 298.015 123.693 298.268 122.795 298.447C122.241 298.558 121.698 298.73 121.147 298.855C120.595 298.98 120.046 299.111 119.489 299.183C118.588 299.294 117.682 299.364 116.778 299.438C114.968 299.582 113.158 299.72 111.349 299.853C111.122 299.876 110.893 299.874 110.667 299.846C108.241 299.46 105.793 299.645 103.356 299.568C102.39 299.537 101.45 299.466 100.526 299.08C99.8572 298.801 99.0722 298.807 98.3868 298.554C96.139 297.724 94.0276 296.638 92.3169 294.908C91.5446 294.127 90.9888 293.237 90.8413 292.101C90.7561 291.434 90.5191 290.783 90.3111 290.14C90.0801 289.421 89.5525 289.042 88.8049 288.947C88.2423 288.873 87.6806 288.784 87.124 288.676C86.9245 288.637 86.7404 288.521 86.4157 288.386C86.9501 287.906 87.4777 288.045 87.95 287.994C88.4009 287.944 88.8586 287.939 89.3062 287.869C89.7988 287.792 90.2847 287.664 90.728 287.568C90.8132 287.166 90.6112 287.068 90.387 287.003C90.0105 286.879 89.6271 286.777 89.2388 286.697C88.2048 286.522 87.3124 286.047 86.4693 285.454C86.194 285.261 85.9161 284.943 85.6246 284.924C84.0579 284.822 83.0222 283.782 82.0675 282.788C79.7805 280.408 77.8702 277.771 76.5933 274.658C75.03 270.848 74.0549 266.908 73.3602 262.872C72.6783 258.894 72.3373 254.881 71.9963 250.866C71.3093 242.708 71.2377 234.535 71.3289 226.357C71.3639 223.234 71.4048 220.111 71.4312 216.988C71.461 213.517 71.9631 210.084 72.2759 206.64C72.3612 205.68 72.4157 204.717 72.5001 203.756C72.5231 203.501 72.605 203.254 72.7072 202.786C72.9076 203.116 73.0482 203.24 73.0482 203.365C73.0584 204.444 73.153 205.535 73.015 206.597C72.7482 208.636 72.8257 210.677 72.7874 212.719C72.7643 213.908 72.7763 215.099 72.7874 216.289C72.7942 217.353 73.3508 217.95 74.4922 218.183C74.5774 217.905 74.6942 217.658 74.7172 217.404C74.7581 216.953 74.7394 216.496 74.7496 216.04C74.7712 214.622 74.9784 213.214 75.3659 211.85C76.0103 209.613 76.815 207.441 77.5753 205.246C78.4686 202.663 79.6152 200.205 80.7207 197.721C81.204 196.634 81.6013 195.504 82.1084 194.432C82.5415 193.512 83.0768 192.642 83.5643 191.746C83.7527 191.399 83.9539 191.056 84.1142 190.696C84.8276 189.095 85.6169 187.533 86.2895 185.909C87.0012 184.191 87.9866 182.584 88.8314 180.924C89.2678 180.064 89.659 179.181 90.0682 178.307C90.1637 178.102 90.2106 177.861 90.3452 177.687C91.8131 175.777 92.6391 173.525 93.702 171.4C94.4573 169.89 95.4656 168.488 95.7546 166.769C95.7792 166.657 95.8237 166.551 95.8859 166.455C96.9326 164.693 97.5395 162.739 98.3297 160.865C98.4527 160.61 98.5468 160.343 98.6102 160.067C98.9511 158.107 99.3194 156.157 99.5683 154.186C99.6799 153.298 99.5222 152.379 99.5078 151.474C99.5001 150.97 99.3722 150.379 99.5836 149.976C100.027 149.135 99.9246 148.342 99.7277 147.504C99.6934 147.337 99.674 147.168 99.6697 146.997C99.6049 145.821 98.6843 145.738 97.9743 146.076C97.2071 146.437 96.4877 146.886 95.7529 147.308C94.9695 147.757 94.1564 148.168 93.4258 148.693C92.929 149.066 92.494 149.515 92.137 150.024C91.3323 151.132 90.4612 152.172 89.3726 153.008C89.0692 153.24 88.6745 153.354 88.3216 153.519L88.3438 153.556C89.0257 151.545 90.254 149.82 91.3272 148.024C92.4353 146.177 93.6423 144.388 94.8834 142.629C95.8637 141.239 96.9292 139.909 98.0143 138.594C99.2162 137.131 100.905 136.463 102.642 135.872C105.322 134.961 108.088 134.78 110.882 134.837C112.582 134.871 114.277 134.912 115.971 135.187C118.083 135.528 120.009 136.345 121.871 137.306C122.541 137.653 123.072 138.329 123.575 138.932C127.272 143.346 130.327 148.18 132.931 153.312C133.648 154.724 134.519 156.059 135.345 157.415C135.572 157.788 135.89 158.105 136.272 158.577C136.448 158.11 136.568 157.81 136.674 157.508C137.196 156.027 138.325 155.416 139.811 155.323C140.851 155.258 141.848 155.493 142.814 155.839C144.468 156.436 146.12 157.044 147.758 157.686C148.601 158.018 149.472 158.342 150.223 158.833C152.268 160.175 153.587 162.072 153.781 164.544C154.08 168.34 154.071 172.148 153.883 175.951C153.826 177.082 153.66 178.212 153.48 179.332C153.326 180.286 152.911 181.151 152.353 182.117C152.067 181.827 151.829 181.671 151.714 181.451C151.424 180.899 151.19 180.319 150.934 179.746C150.586 178.97 150.252 178.2 149.705 177.519C149.401 177.138 149.284 176.609 149.04 176.05C148.798 175.965 148.478 175.867 148.18 175.726C147.517 175.415 146.842 175.12 146.215 174.746C145.436 174.282 144.712 173.73 143.944 173.248C143.621 173.045 143.246 172.924 142.957 172.794C142.507 173.035 142.623 173.343 142.712 173.586C143.864 176.747 144.465 180.048 145.145 183.324C145.768 186.323 146.253 189.35 146.764 192.373C147.185 194.891 147.526 197.421 147.933 199.941C148.068 200.777 148.388 201.59 148.471 202.428C148.698 204.743 148.897 207.064 149.01 209.387C149.219 213.64 149.378 217.897 149.522 222.153C149.666 226.409 149.778 230.666 149.871 234.924C149.911 236.739 149.841 238.558 149.859 240.374C149.87 241.448 150.122 242.512 149.915 243.599C149.856 243.906 149.96 244.287 150.101 244.58C150.875 246.194 150.993 247.84 150.464 249.545C150.403 249.764 150.377 249.991 150.387 250.218C150.419 251.809 150.459 253.398 150.506 254.985C150.519 255.211 150.555 255.435 150.613 255.654C150.678 255.931 151.1 256.018 151.305 255.791C151.965 255.058 152.434 254.243 152.506 253.222C152.567 252.375 152.75 251.536 152.787 250.689C152.837 249.525 153.226 248.46 153.691 247.432C154.167 246.377 154.415 245.281 154.535 244.151C154.602 243.514 154.712 242.928 155.169 242.436C155.496 242.085 155.564 241.63 155.53 241.158C155.507 240.817 155.42 240.471 155.462 240.141C155.718 238.173 155.991 236.21 156.27 234.247C156.356 233.629 156.547 233.02 156.575 232.402C156.732 229 156.852 225.597 156.986 222.194C157.072 219.982 157.251 217.77 157.231 215.56C157.2 212.097 157.061 208.635 156.916 205.175C156.856 203.761 156.654 202.352 156.524 200.94C156.503 200.724 156.524 200.503 156.524 200.28C156.95 200.207 156.847 200.514 156.846 200.673C156.827 201.809 156.967 202.942 157.262 204.039C157.451 204.753 157.504 205.496 157.417 206.23C157.27 207.384 157.484 208.492 157.597 209.618C157.714 210.802 157.91 211.985 157.924 213.17C157.997 219.304 158.04 225.438 158.052 231.572C158.052 232.987 157.875 234.402 157.796 235.819C157.733 236.895 157.685 237.972 157.639 239.05C157.585 240.352 157.623 241.66 157.213 242.928C157.094 243.296 157.136 243.715 157.087 244.109C156.983 244.95 156.869 245.79 156.755 246.631C156.732 246.801 156.659 246.966 156.663 247.132C156.713 249.187 156.172 251.172 155.947 253.195C155.816 254.376 155.581 255.545 155.386 256.719C154.995 259.069 154.618 261.423 154.2 263.768C153.969 265.052 153.694 266.328 153.376 267.595C152.78 269.959 152.146 272.312 151.516 274.67C151.048 276.421 150.524 278.153 149.835 279.834C149.339 281.041 148.884 282.267 148.46 283.499C147.607 285.971 146.544 288.358 145.361 290.677C144.333 292.694 143.092 294.603 141.893 296.527C141.525 297.102 141.07 297.616 140.545 298.052C138.453 299.814 136.207 301.343 133.604 302.26C133.052 302.454 132.762 302.856 132.57 303.317C132.154 304.308 131.803 305.328 131.456 306.345C131.162 307.198 130.904 308.065 130.631 308.927C130.528 309.251 130.368 309.57 130.337 309.901C130.251 310.794 129.765 311.478 129.275 312.219C128.975 311.111 128.975 311.111 129.734 308.148C129.529 307.829 129.218 307.86 129.025 308.077C128.5 308.673 128.034 309.314 127.532 309.93C127.221 310.312 126.979 310.795 126.339 310.84C126.296 310.664 126.201 310.499 126.232 310.365C126.624 308.654 127.035 306.946 127.439 305.237C127.478 305.073 127.559 304.881 127.507 304.745C127.429 304.546 127.29 304.377 127.11 304.262C127.016 304.207 126.735 304.293 126.671 304.397C126.467 304.732 126.338 305.113 126.151 305.46C125.991 305.755 125.844 306.09 125.598 306.298C124.361 307.349 122.288 307.365 121.002 306.366C120.824 306.224 120.657 306.071 120.5 305.906C119.923 305.319 119.265 304.946 118.407 304.912C117.904 304.893 117.411 304.692 116.906 304.641C116.736 304.623 116.544 304.812 116.291 304.946C117.1 306.439 118.311 307.504 119.204 308.799C120.098 310.093 121.08 311.356 122.026 312.627L122.024 312.614ZM121.669 153.896C121.721 154.514 121.779 155.132 121.824 155.751C121.851 156.144 121.802 156.549 121.883 156.929C122.295 158.85 122.904 160.724 123.698 162.521C124.106 162.692 124.448 162.838 124.822 162.997C124.721 163.321 124.639 163.53 124.593 163.746C124.547 163.963 124.54 164.172 124.508 164.423C124.849 164.404 125.105 164.39 125.385 164.374C125.417 164.568 125.521 164.781 125.456 164.885C124.828 165.861 125.099 166.699 125.786 167.502C125.93 167.672 126.024 167.881 126.135 168.065C126.332 168.11 126.495 168.145 126.657 168.185C127.78 168.451 128.061 168.905 127.772 169.986C127.687 170.3 127.601 170.613 127.491 170.992C128.89 171.941 129.483 173.314 129.785 174.86C129.922 175.53 130.224 176.154 130.666 176.676C130.944 177.017 131.124 177.444 131.329 177.842C132.132 179.401 132.904 180.975 133.744 182.513C133.914 182.824 134.295 183.08 134.636 183.224C135.175 183.45 135.732 183.039 135.642 182.476C135.48 181.467 135.512 180.436 135.738 179.439C135.793 179.16 135.793 178.873 135.738 178.594C135.626 177.992 135.752 177.478 136.164 177.02C136.875 176.219 136.723 175.359 136.327 174.48C135.991 173.735 135.455 173.155 134.814 172.674C134.403 172.371 133.976 172.091 133.535 171.835C133.051 171.547 132.795 171.139 132.797 170.583C132.797 169.722 132.67 168.896 132.277 168.111C132.163 167.851 132.099 167.572 132.088 167.288C132.03 166.562 131.677 166.003 131.151 165.533C130.772 165.192 130.372 164.877 129.993 164.536C129.886 164.421 129.79 164.295 129.707 164.161L129.871 162.996C128.65 162.128 127.762 161.001 127.132 159.772C126.477 158.521 125.75 157.309 124.953 156.144C124.174 154.984 123.051 154.227 121.668 153.903C121.819 153.307 121.992 152.717 122.108 152.113C122.148 151.907 122.049 151.67 121.706 151.765C121.334 152.466 121.741 153.189 121.669 153.899L121.669 153.896ZM76.8585 219.009C76.7732 217.317 76.9608 215.93 77.7586 214.691C77.7823 214.64 77.7976 214.585 77.8038 214.528C78.2181 212.706 78.6605 210.889 79.0406 209.059C79.7226 205.774 79.9979 204.982 81.6541 201.784C81.7769 201.545 81.8757 201.231 81.8246 200.984C81.7734 200.738 81.5586 200.461 81.343 200.372C81.0446 200.249 80.8366 200.516 80.7173 200.799C80.4292 201.475 80.1522 202.157 79.853 202.829C79.5078 203.606 79.1028 204.363 78.7943 205.15C78.1976 206.679 77.6862 208.242 77.0784 209.764C76.4152 211.418 76.2174 213.166 75.9379 214.897C75.8304 215.561 75.9072 216.256 75.9089 216.937C75.9114 217.641 76.0947 218.276 76.8585 219.013L76.8585 219.009ZM76.1169 221.543C75.0701 221.964 74.4973 222.327 74.1043 222.807C73.3184 223.761 73.3585 224.962 74.2066 225.876C74.5297 226.224 75.0855 226.302 75.4256 225.99C75.9762 225.489 76.4357 224.905 76.463 224.122C76.4819 223.447 76.4628 222.772 76.4058 222.099C76.3905 221.908 76.214 221.727 76.1169 221.546L76.1169 221.543ZM110.661 293.025C109.651 292.587 108.64 292.621 107.646 292.599C107.293 292.589 107.02 292.904 107.037 293.28C107.078 294.121 107.14 294.961 107.223 295.799C107.237 295.935 107.399 296.159 107.498 296.162C107.691 296.167 108.002 296.098 108.063 295.966C108.434 295.157 109.01 294.607 109.821 294.238C110.219 294.054 110.582 293.741 110.661 293.028L110.661 293.025ZM138.66 184.495C138.59 184.268 138.568 184.093 138.489 183.952C138.191 183.423 137.296 183.21 136.67 183.502C136.269 183.69 136.236 184.216 136.603 184.859C136.713 185.056 136.849 185.236 137.009 185.397C137.328 185.711 137.946 185.702 138.229 185.342C138.427 185.088 138.529 184.758 138.66 184.495ZM83.3572 195.706C82.7844 196.782 82.388 197.519 81.9993 198.264C81.9253 198.416 81.8616 198.573 81.8084 198.734C81.7836 198.785 81.7767 198.844 81.7888 198.899C81.874 199.087 81.9499 199.302 82.0948 199.435C82.1519 199.488 82.4434 199.401 82.521 199.298C82.8311 198.891 83.1125 198.464 83.3632 198.019C83.7024 197.401 83.7527 196.755 83.3572 195.706ZM136.113 287.654C136.212 286.338 136.188 286.214 135.659 285.322C135.436 284.931 135.171 284.566 134.868 284.232C134.751 284.109 134.429 284.062 134.262 284.128C133.975 284.245 133.914 284.542 133.999 284.847C134.01 284.902 134.031 284.955 134.062 285.003C134.744 285.886 135.427 286.769 136.113 287.651L136.113 287.654ZM95.527 294.192C95.6293 294.04 95.81 293.88 95.839 293.696C95.868 293.511 95.7648 293.292 95.6804 293.105C95.6591 293.06 95.4648 293.043 95.3847 293.083C95.3003 293.126 95.2263 293.188 95.1678 293.263C95.1093 293.338 95.0677 293.424 95.0457 293.517C95.0238 293.609 95.0221 293.706 95.0407 293.799C95.0594 293.892 95.0979 293.98 95.1537 294.057C95.2074 294.123 95.3437 294.127 95.527 294.189L95.527 294.192ZM85.6783 191.454C85.755 191.396 85.8693 191.351 85.8991 191.275C85.9289 191.198 85.871 191.091 85.8513 190.997C85.7746 191.058 85.6638 191.106 85.6306 191.186C85.5973 191.266 85.6587 191.363 85.6783 191.454ZM148.543 279.485C148.595 279.408 148.69 279.331 148.69 279.253C148.69 279.176 148.605 279.074 148.561 278.984C148.472 279.075 148.395 279.178 148.334 279.289C148.321 279.321 148.468 279.418 148.543 279.485Z" fill="url(#paint0_linear_1_49)" stroke="#F8F8F8" stroke-miterlimit="10"/>
<path d="M152.252 85.0535C153.219 84.8345 153.833 84.2761 154.406 83.5678C155.783 83.9087 156.878 83.4399 157.888 82.6855L157.675 81.1461C157.898 81.0293 158.047 80.8844 158.192 80.8904C159.106 80.91 159.689 80.4164 160.081 79.6689C160.631 78.6162 161.264 77.5847 161.642 76.4698C162.26 74.6474 163.02 72.8633 163.334 70.9411C163.536 69.7128 163.819 68.4964 164.075 67.2757C164.144 66.9467 164.209 66.6066 164.35 66.3049C164.499 65.9826 165.069 65.8446 165.401 65.9843C165.713 66.1165 165.793 66.3841 165.768 66.6774C165.73 67.1283 165.672 67.5792 165.598 68.025C165.473 68.7513 165.326 69.4741 165.19 70.1986C164.557 73.5563 163.832 76.8789 161.761 79.7217C161.622 79.9127 161.356 80.1624 161.645 80.4676C162.156 80.2229 162.641 79.8334 163.166 79.7695C164.253 79.6382 165.083 79.1429 165.824 78.3937C166.336 77.8754 166.988 77.7305 167.705 77.8132C169.842 78.0712 171.953 78.517 174.012 79.1455C175.7 79.6518 177.513 79.593 179.112 80.3994C180.979 80.5699 182.836 80.7958 184.653 81.2833C184.869 81.3413 185.108 81.3029 185.335 81.3379C186.79 81.5663 188.247 81.7888 189.698 82.0462C190.034 82.1041 190.352 82.237 190.63 82.4349C191.37 82.9873 192.218 83.0546 193.066 82.9899C194.48 82.8808 195.884 82.6651 197.297 82.5355C198.095 82.4631 198.549 82.065 198.698 81.3004C198.954 79.9664 199.21 78.6324 199.449 77.2941C199.476 77.1432 199.372 76.9702 199.311 76.7374C198.788 76.4817 198.194 76.2592 197.691 75.9115C197.189 75.5637 196.823 75.0539 196.546 74.3209C196.947 74.3533 197.222 74.3524 197.484 74.401C199.379 74.7505 201.269 75.14 203.172 75.4546C204.29 75.6387 205.431 75.6736 206.554 75.8365C210.536 76.4144 214.481 76.0692 218.412 75.3966C219.605 75.1937 220.693 74.7283 221.572 73.8469C222.116 73.3014 222.268 72.6536 221.977 71.9716C221.758 71.4602 221.42 70.9914 221.082 70.5439C220.743 70.0964 220.379 69.6497 220.414 69.0274C220.449 68.3907 220.118 67.944 219.62 67.6142C219.052 67.2391 218.502 66.7975 217.879 66.5529C215.612 65.6621 213.334 64.8234 210.92 64.3588C209.184 64.0247 207.443 63.8474 205.694 63.6632C204.118 63.4928 203.06 63.2728 202.966 61.1146C202.924 60.1556 202.376 59.4345 201.637 58.8335C200.727 58.0928 199.668 57.6879 198.541 57.5055C197.633 57.3588 196.701 57.3776 196.164 58.3323C195.89 58.1874 195.636 57.93 195.415 57.9555C194.183 58.097 192.891 58.028 191.782 58.7014C191.165 59.0756 190.511 59.1276 189.831 59.1992C187.801 59.4097 185.776 59.6578 183.747 59.8811C183.555 59.9024 183.355 59.8487 183.085 59.8232C183.238 59.645 183.299 59.5044 183.38 59.4924C185.31 59.2137 187.045 58.299 188.898 57.7816C189.17 57.7026 189.418 57.5597 189.623 57.3648C190.687 56.3308 191.448 55.026 191.824 53.5912C191.92 53.2409 191.789 52.9093 191.5 52.68C190.975 52.2538 190.392 52.1165 189.756 52.4047C189.39 52.5658 189.063 52.8031 188.796 53.1006C188.529 53.3981 188.329 53.749 188.208 54.1299C187.697 55.637 186.589 56.2047 185.09 56.301C183.561 56.3999 182.038 56.5755 180.511 56.7119C179.382 56.8124 178.252 56.9224 177.121 56.9966C174.317 57.1824 171.575 56.7008 168.838 56.1842C168.507 56.1231 168.192 55.9958 167.911 55.81C165.834 54.3959 163.593 53.4003 161.108 52.9323C160.268 52.7746 159.468 52.6092 158.594 52.6825C156.155 52.8871 154.373 51.0928 154.455 48.6234C154.476 48.0003 154.485 47.3746 154.446 46.7532C154.429 46.4847 154.311 46.1881 153.929 46.2588C153.87 46.3023 153.804 46.3244 153.786 46.3679C153.7 46.5733 153.615 46.7813 153.546 46.9936C153.194 48.0557 152.967 48.2117 151.958 47.8801C150.556 47.4181 149.167 46.9194 147.781 46.3986C147.305 46.214 146.853 45.9724 146.435 45.6792C145.855 45.2785 145.727 44.8089 146.053 44.2037C146.429 43.5064 146.876 42.8466 147.301 42.1758C147.969 41.1196 147.938 40.4181 147.182 39.3748C147.001 39.1242 146.622 38.9486 146.853 38.4278C147.706 38.7619 148.571 39.1421 149.448 39.0543C150.556 40.5034 150.556 40.5034 151.807 41.1427C152.003 41.9789 151.956 43.0444 153.19 43.2933C153.212 43.1279 153.269 43.0052 153.234 42.9208C152.338 40.7642 150.97 38.8744 149.779 36.8866C149.287 36.0632 148.618 35.3463 148.063 34.5587C146.801 32.7729 145.205 31.3434 143.385 30.162C141.865 29.1749 140.338 28.1946 138.767 27.2928C137.894 26.7915 137.013 26.3014 135.964 26.119C135.173 25.9666 134.467 25.5288 133.978 24.889C133.012 23.632 132.077 22.3508 131.173 21.0455C130.857 20.5869 130.662 20.0379 130.452 19.5111C129.964 18.3016 129.529 17.0699 129.019 15.8697C128.374 14.3507 127.624 12.8922 126.384 11.7423C126.099 11.4772 125.885 11.1286 125.667 10.7996C124.543 9.09474 123.435 7.38481 122.303 5.68511C122.043 5.31411 121.751 4.96669 121.43 4.64688C119.896 3.05117 118.042 2.04874 115.9 1.47081C112.626 0.587717 109.494 0.990055 106.446 2.31725C104.353 3.22762 102.797 4.80969 101.54 6.6577C99.8821 9.09644 98.2804 11.5744 97.1416 14.3183C96.4674 15.9421 95.7258 17.5378 95.0592 19.1642C94.812 19.7669 94.4872 20.2928 93.9511 20.6329C92.6401 21.464 91.8456 22.6906 91.2924 24.0792C90.9625 24.9086 90.3871 25.3254 89.5757 25.5692C86.0757 26.6185 82.8613 28.2457 79.7858 30.225C76.1435 32.5692 73.4976 35.7299 71.5456 39.5359C71.364 39.8896 71.1134 40.24 71.0597 40.6159C71 41.0293 71.1305 41.4683 71.2012 42.1016C70.0172 41.747 69.5953 42.4341 69.3685 43.3598C69.3421 43.4697 69.2935 43.5746 69.2671 43.6845C69.077 44.4781 68.5596 44.958 67.8052 45.2061C67.4293 45.3288 67.0508 45.449 66.6681 45.547C65.5191 45.8522 64.3777 46.2017 63.2133 46.4344C61.9534 46.685 61.0942 47.4505 60.3262 48.3949C60.0074 48.7853 59.6673 49.1621 59.3246 49.5525C58.9973 49.5056 58.7151 49.4903 58.4458 49.4238C55.6618 48.7282 53.0603 49.1681 50.5892 50.6069C50.1152 50.8823 49.5433 51.0331 48.9977 51.126C48.4522 51.219 47.8623 51.2036 47.298 51.167C44.4092 50.9794 41.5093 50.8729 38.6376 50.5328C36.4511 50.277 34.2766 49.8508 32.1703 49.1135C31.1475 48.7546 30.5209 48.1827 30.2448 47.1734C30.1851 46.9552 30.1476 46.7293 30.0828 46.5128C29.7333 45.3408 28.9841 44.8199 27.818 44.929C27.1957 44.987 26.784 45.4055 26.7431 46.0372C26.6971 46.76 26.9579 47.3507 27.454 47.8826C28.3814 48.8782 29.6063 49.3437 30.8244 49.7954C32.8403 50.5421 34.8819 51.2215 36.9123 51.9264C36.4469 51.9554 35.984 51.9512 35.5578 51.8216C34.1427 51.3982 32.6844 51.1357 31.2105 51.0391C30.7102 51.0041 30.145 50.9308 29.7444 50.6692C29.0625 50.2242 28.2825 50.0554 27.5878 49.6846C25.8438 48.7546 23.9762 48.8143 22.1035 48.9652C20.7711 49.0717 19.7534 49.7068 19.1541 50.9504C18.9836 51.3008 18.739 51.6145 18.5344 51.9367C18.2608 51.9819 18.04 52.0466 17.8184 52.0492C15.1359 52.0858 12.5113 52.5462 9.90294 53.1224C7.90248 53.5504 5.9611 54.2187 4.12106 55.1127C3.66806 55.3471 3.23401 55.6165 2.82284 55.9183C2.48614 56.1569 2.22618 56.5149 2.29948 56.9318C2.45122 57.8183 2.00711 58.4661 1.53232 59.108C0.744687 60.1777 0.80264 61.0395 1.89714 62.1127C2.7359 62.9344 3.7818 63.3802 4.89419 63.6547C7.81505 64.3826 10.8003 64.8223 13.807 64.9674C17.416 65.1379 20.916 64.4134 24.4467 63.9053C24.5603 63.8992 24.6711 63.8684 24.7715 63.815C25.5028 63.3035 26.397 63.3402 27.1949 63.0665C28.0984 62.7563 28.99 62.4025 29.8637 62.0164C30.2456 61.8459 30.6309 61.6055 30.7588 61.0063C29.3949 61.2288 28.0848 61.3225 26.8462 61.6703C24.8782 62.2174 22.8788 62.6444 20.8589 62.9489C17.3538 63.4859 13.8453 63.4604 10.3351 62.9984C9.54748 62.8944 8.75305 62.8279 7.97395 62.683C7.142 62.5261 6.31688 62.3173 5.50198 62.082C5.24626 62.0079 5.0178 61.7854 5.19681 61.3362C6.13444 61.1256 7.1275 60.9492 8.15295 60.9466C8.83487 60.9466 9.52874 60.9747 10.1919 60.852C11.4884 60.6125 12.7883 60.6048 14.0951 60.6014C14.719 60.6014 15.3541 60.6363 15.9661 60.5426C17.8303 60.2553 19.7048 60.3303 21.5775 60.2868C24.1876 60.2323 26.7976 60.1317 29.4086 60.1164C30.0905 60.1164 30.619 59.9459 31.0997 59.4958C31.4279 59.1881 31.7817 58.8991 32.1337 58.6264C32.2044 58.571 32.34 58.5999 32.4457 58.5897L32.7483 59.0756L33.9417 58.1499L33.2342 54.6439C33.3467 54.6081 33.512 54.4965 33.6552 54.5203C34.4949 54.6584 35.3362 54.7982 36.1639 54.9917C38.9768 55.6506 41.7855 56.3394 44.6027 57.0008C45.3699 57.1824 46.1626 57.2881 46.9357 57.4654C47.985 57.7049 49.0224 57.9964 50.0726 58.2326C51.7314 58.6093 53.4055 58.9222 55.0558 59.3347C57.076 59.8393 57.3769 60.1752 57.4169 62.2542C57.4919 66.1668 58.5251 69.873 59.7133 73.552C59.9034 74.141 60.1958 74.7036 60.4924 75.2508C60.7396 75.7069 61.101 76.1467 61.6432 76.1808C62.4649 76.2328 62.8203 76.7409 63.1187 77.3853L62.3993 78.6127C63.0096 79.6254 64.1484 79.2708 64.8994 79.8598C64.9846 80.0209 65.0792 80.2246 65.1892 80.4198C65.8779 81.6405 66.767 81.9158 68.0072 81.3055C68.5187 81.0498 69.0412 80.8222 69.3557 80.309C69.6294 79.8624 70.0607 79.7567 70.5338 79.7848C71.2157 79.8249 71.89 79.9101 72.5693 79.9434C73.0183 79.9744 73.4693 79.9627 73.9161 79.9084C74.3977 79.8385 74.5128 79.3765 74.1897 79.0236C73.9732 78.79 73.5538 78.7466 73.5274 78.2291C74.4419 77.9686 75.4034 77.9176 76.3404 78.08C76.4597 78.1013 76.5475 78.3016 76.7299 78.5105C76.3983 78.7142 76.1153 78.8744 75.8468 79.0551C75.1896 79.4975 75.1223 80.6048 75.7471 81.0839C76.2798 81.4922 76.8978 81.5655 77.5209 81.314C78.0801 81.0881 78.4731 80.6773 78.5592 80.0635C78.6725 79.2537 78.52 78.4909 77.9889 77.9035L78.4705 76.8977C78.1168 76.6556 77.8662 76.3982 77.5619 76.2899C75.9124 75.7026 74.6637 74.5783 73.5019 73.3329C73.3655 73.1872 73.299 72.9775 73.1464 72.6987C73.4984 72.6416 73.732 72.5334 73.9238 72.5837C74.9791 72.8564 76.0548 72.8726 77.1305 72.9332C77.6335 72.9604 78.1304 73.1275 78.6265 73.2451C79.2334 73.3883 79.8384 73.5398 80.4413 73.6995C81.754 74.0473 83.0837 74.355 84.3751 74.7667C86.3092 75.383 88.0695 76.4911 90.117 76.8039C90.3863 76.8449 90.6284 77.0537 90.891 77.1509C91.9011 77.5217 92.8924 78.0374 93.9366 78.1968C95.0294 78.3672 96.0062 78.7551 97.0112 79.1344C97.5925 79.356 98.1952 79.524 98.7945 79.6962C101.908 80.5929 105.16 80.7864 108.298 81.5655C108.466 81.5989 108.638 81.6138 108.809 81.6098C112.501 81.695 116.19 81.7675 119.848 81.0788C120.956 80.8699 122.097 80.7975 123.224 80.6781C124.523 80.5409 125.814 80.4224 127.024 79.8368C127.593 79.5751 128.201 79.407 128.823 79.339C130.847 79.0884 132.744 78.1456 134.832 78.2522C135.098 78.2658 135.381 78.1209 135.641 78.0127C136.033 77.849 136.397 77.8984 136.798 78.0033C137.343 78.1479 137.902 78.2359 138.465 78.2658C139.43 78.3084 140.397 78.2547 141.364 78.2922C142.404 78.3332 143.259 78.074 143.836 77.1279C144.148 76.6164 144.662 76.399 145.26 76.3095C146.042 76.1928 146.809 75.9609 147.593 75.8561C148.258 75.7708 147.897 75.8288 148.57 75.8365C148.664 75.8365 150.316 74.7755 150.316 74.7755C150.867 74.9349 155.073 72.977 154.997 73C154.997 73 151.588 77.3202 150.997 77.5C150.619 77.6027 149.568 77.5727 149.208 77.7288C148.977 77.8362 148.918 78.3025 149.101 78.484C149.342 78.7197 149.601 78.9371 149.874 79.1344C150.331 79.4694 150.86 79.7311 148.878 79.7158C149.566 80.3977 149.346 81.0285 148.57 81.291C148.087 81.4538 147.594 81.5893 147.106 81.7402C146.944 81.7897 146.765 81.8161 146.632 81.9107C146.499 82.0053 146.377 82.1758 146.377 82.3105C146.377 82.4315 146.553 82.6429 146.666 82.6514C147.627 82.7367 148.594 82.7623 149.553 82.8629C150.25 82.9353 150.548 83.301 150.542 84.0042C150.542 84.3989 150.437 84.7927 150.425 85.1874C150.414 85.5616 150.461 85.9375 150.487 86.3807C151.136 85.8829 151.633 85.1933 152.252 85.0535ZM197.299 76.8807C197.299 77.0332 197.228 77.185 197.186 77.3367C197.073 77.2625 196.882 77.2003 196.869 77.1117C196.849 76.9795 196.954 76.8295 197.016 76.6718C197.145 76.7596 197.299 76.8193 197.299 76.8807ZM195.701 76.555C195.69 76.6003 195.673 76.6437 195.649 76.6837C195.639 76.5798 195.635 76.4754 195.635 76.3709C195.635 76.3274 195.677 76.2857 195.704 76.2371C195.704 76.3436 195.709 76.4485 195.701 76.5516L195.701 76.555ZM115.575 15.2167C115.392 15.4528 115.264 15.6156 115.138 15.7802C115.043 15.9021 114.952 16.0265 114.821 16.2004C113.712 14.7402 113.639 13.1317 113.748 11.4551C114.17 11.1311 114.523 11.6477 114.817 11.2351C114.96 11.0348 115.237 10.9291 115.48 10.762C116.218 11.4568 116.368 12.3416 116.518 13.13C116.798 14.597 117.25 16.0495 117.315 17.8183C116.366 17.0366 116.318 15.954 115.577 15.2133L115.575 15.2167ZM125.359 17.9521C125.338 17.6682 125.401 17.3469 125.725 17.2812C125.83 17.2678 125.937 17.2772 126.038 17.3088C126.14 17.3404 126.233 17.3935 126.312 17.4645C126.812 17.9981 127.203 18.5905 126.909 19.5146C125.913 19.2495 125.422 18.7857 125.361 17.9487L125.359 17.9521ZM129.092 20.5204C128.532 18.9954 128.037 17.4517 127.526 15.9055C127.513 15.868 127.567 15.8091 127.59 15.758C127.87 15.5875 128.021 15.8006 128.096 15.9924C128.53 17.0954 128.936 18.2087 129.359 19.3168C129.577 19.8871 129.812 20.4505 130.041 21.0165L129.814 21.1725C129.561 20.9577 129.188 20.7923 129.092 20.5204ZM201.632 72.3356C202.478 72.3902 203.322 72.4933 204.166 72.5854C204.558 72.6289 204.98 72.6195 205.334 72.7669C206.362 73.1931 207.437 73.1684 208.511 73.2255C210.602 73.3381 212.688 73.4753 214.781 73.6117C215.504 73.6586 216.181 73.8896 216.878 74.0379L216.793 74.3618C216.688 74.4002 216.584 74.4701 216.479 74.4726C212.91 74.5425 209.336 74.7283 205.78 74.2953C204.095 74.089 202.425 73.7523 200.751 73.4668C199.813 73.3065 199.019 72.7848 198.151 72.3586C198.293 72.3092 198.437 72.2137 198.577 72.2171C199.597 72.2444 200.617 72.2709 201.632 72.3356ZM84.0436 51.6972C84.0436 50.7331 84.1211 49.7647 84.0589 48.8058C83.943 47.0209 84.763 45.5078 85.352 43.9224C85.5873 43.2882 85.8839 42.6676 86.0339 42.013C86.7295 38.9724 87.7745 36.0325 88.5707 33.0209C88.9833 31.4576 90.1647 30.7629 91.607 30.3861C91.7536 30.3469 91.9309 30.4237 92.1696 30.4577C92.3912 32.6015 91.6675 34.4828 91.4211 36.4289C91.1935 38.2257 90.9949 40.0303 90.9003 41.8374C90.8483 42.8424 90.6779 43.7587 90.0172 44.5182C89.1486 45.5164 89.0003 46.6492 89.3353 47.863C89.6106 48.8535 89.3745 49.5806 88.5903 50.2753C87.8768 50.907 87.3117 51.7065 86.7014 52.4515C86.5309 52.6629 86.3067 52.9493 86.3255 53.1855C86.4149 54.3422 85.6282 54.9107 84.8269 55.5671C84.5712 55.3966 84.3155 55.1741 84.024 55.0429C83.7324 54.9116 83.4171 54.8792 83.0241 54.782C83.1366 54.4624 83.1545 54.21 83.2883 54.0643C83.9148 53.3858 84.0453 52.57 84.0436 51.6972ZM87.8743 52.4933L88.0448 52.8675C87.9143 52.9282 87.7785 52.9764 87.639 53.0116C87.616 53.0116 87.5606 52.8479 87.5018 52.7192L87.8743 52.4933ZM64.3095 52.2239C64.4135 53.0397 63.9549 53.6014 63.4026 54.3891C63.4111 53.3815 63.6574 52.7226 64.3095 52.2239ZM56.1017 56.9318C55.7619 56.9124 55.4249 56.859 55.0958 56.7724C52.2977 56.0512 49.5012 55.3227 46.7064 54.5868C46.4507 54.5195 46.2095 54.3933 45.9614 54.2944L46.0041 53.9867C46.4473 53.9867 46.8906 53.9705 47.333 53.9867C48.4096 54.0327 49.4853 54.1265 50.5619 54.1419C51.4718 54.1552 52.3657 53.9022 53.1336 53.4139C54.7532 52.4208 56.065 52.628 57.6019 53.9833C57.8406 54.5902 57.6437 55.2057 57.526 55.8066C57.3607 56.6684 56.9464 56.9744 56.1042 56.9343L56.1017 56.9318ZM139.492 57.8626C138.633 57.4245 137.787 56.9812 137.167 56.1876C136.548 55.394 135.817 54.6533 135.207 53.8401C134.074 52.3416 132.765 51.0024 131.473 49.6505C130.518 48.6498 129.965 47.5638 130.045 46.148C130.083 45.4771 129.933 44.7961 129.866 44.1193C129.826 43.7246 129.731 43.3282 129.747 42.9361C129.846 40.4829 129.461 38.0723 129.161 35.6523C129.075 34.9789 129.089 34.2885 129.057 33.6134C129.081 33.6134 129.106 33.6134 129.13 33.6134C129.13 32.9314 129.092 32.2495 129.142 31.5727C129.188 30.9368 129.605 30.5754 130.165 30.7288C131.925 31.2104 133.643 31.8182 134.98 33.1352C135.597 33.7429 135.939 34.5203 136.105 35.3864C136.629 38.1141 137.168 40.8403 137.725 43.5652C137.927 44.5688 138.302 45.5297 138.833 46.4054C139.146 46.9416 139.393 47.5141 139.568 48.1102C140.19 50.1721 140.681 52.2712 141.038 54.395C141.094 54.7249 141.251 55.0377 141.351 55.3617C141.451 55.6856 141.584 56.0069 141.621 56.3385C141.751 57.5711 140.948 58.6076 139.492 57.8626ZM156.92 54.112C156.966 54.0577 157.023 54.0133 157.087 53.9818C157.151 53.9502 157.221 53.9321 157.292 53.9285C157.363 53.9249 157.434 53.9359 157.501 53.9609C157.568 53.9859 157.629 54.0242 157.68 54.0737C158.136 54.4862 158.653 54.8997 158.93 55.4256C159.767 57.0145 159.886 58.7304 159.643 60.5059C159.447 60.459 159.282 60.4659 159.251 60.4053C158.742 59.4063 157.051 54.8136 156.917 54.1112L156.92 54.112ZM129.387 59.1838C130.385 59.2265 130.873 59.4498 130.896 59.9144C130.922 60.4411 130.508 60.6696 129.95 60.9662C129.569 60.3593 129.285 59.8385 129.388 59.183L129.387 59.1838ZM165.002 62.2585C164.922 62.0487 164.865 61.8309 164.831 61.6089C164.639 60.4582 164.457 59.3074 164.229 57.8856C164.636 58.1516 164.768 58.1891 164.81 58.2726C165.415 59.4856 165.773 60.7787 165.967 62.1136C165.99 62.2687 165.797 62.5398 165.639 62.6165C165.32 62.7682 165.114 62.5364 165.003 62.2576L165.002 62.2585ZM63.3719 63.5712C63.8151 63.7417 63.8151 63.7417 64.133 64.4636C63.4971 64.3025 63.3719 63.9803 63.3719 63.5712ZM178.148 64.1926C178.659 63.9948 179.262 64.0221 179.827 63.9965C181.304 63.936 182.768 63.826 184.194 63.3879C184.678 63.2396 185.194 63.1842 185.7 63.1254C186.989 62.9753 188.275 62.9421 189.548 62.5287C190.432 62.244 191.456 62.4034 192.418 62.3582C193.152 62.3224 193.907 62.3676 194.613 62.2039C195.196 62.0692 195.7 61.6251 196.277 61.4248C196.83 61.2322 197.43 61.1776 198.131 61.0387C198.738 63.0333 198.743 63.0435 196.872 63.7766C195.87 64.1696 194.863 64.5353 193.75 64.4943C192.677 64.4543 191.731 65.0177 190.946 65.5795C190.126 66.1642 189.837 67.2544 189.77 68.3072C189.714 69.2082 190.392 69.7264 190.878 70.3316C190.992 70.4748 191.288 70.5251 191.501 70.5268C191.887 70.5268 192.274 70.4603 192.632 70.4245C193.655 72.4106 193.655 72.4106 193.591 73.408C193.25 73.506 192.872 73.7191 192.507 73.6995C191.381 73.6381 190.224 73.6194 189.147 73.3312C188.272 73.0977 187.4 72.8769 186.51 72.7115C186.012 72.6186 185.526 72.4626 185.034 72.339C184.542 72.2154 184.051 72.0833 183.557 71.9776C183.226 71.9035 182.837 71.9444 182.564 71.7824C181.541 71.1755 180.394 71.1781 179.273 71.0442C178.488 70.9505 177.692 70.9428 176.952 70.5822C176.658 70.439 176.294 70.4117 175.959 70.3853C174.719 70.2924 173.494 70.0558 172.309 69.6804C171.101 69.2891 169.766 69.2849 168.485 69.5397C168.016 70.3461 168.451 71.2897 167.908 72.1208C167.765 71.918 167.661 71.8097 167.607 71.681C167.576 71.5719 167.568 71.4575 167.584 71.3451C167.645 69.9012 167.428 68.539 166.987 67.1607C166.875 66.8061 166.927 66.4003 166.908 66.0824C167.504 65.5488 168.144 65.6144 168.757 65.5419C169.597 65.4414 170.43 65.2862 171.268 65.1669C171.884 65.0805 172.502 65.0086 173.122 64.9512C174.811 64.7995 176.52 64.8242 178.148 64.1926ZM118.578 65.2879L118.658 65.1592L118.658 66.9339C118.631 66.939 118.604 66.945 118.578 66.9501L118.578 65.2879ZM157.486 67.8255C157.507 67.8656 157.548 67.9108 157.545 67.9449C157.541 67.979 157.489 68.0088 157.46 68.0403L157.389 67.915L157.486 67.8255ZM105.647 68.0889C105.657 68.0497 105.699 68.0199 105.726 67.9858L105.759 68.2509C105.725 68.2432 105.669 68.2509 105.661 68.2279C105.641 68.1841 105.636 68.1358 105.647 68.0889ZM92.3289 68.3447C92.2377 68.233 92.132 68.3233 92.2437 68.1929C92.3554 68.0625 92.3767 68.1878 92.3844 68.2995L92.3844 68.6174C92.3869 68.5151 92.3315 68.4418 92.3289 68.3429L92.3289 68.3447ZM61.9901 74.9977C61.2442 74.9014 60.9936 74.4641 60.9894 73.9364C60.9904 73.0997 61.0405 72.2638 61.1394 71.4329C61.1564 71.2778 61.4164 71.0732 61.598 71.0289C61.8963 70.9564 62.1393 71.1329 62.2143 71.4466C62.3779 72.1293 62.2637 74.0038 61.9901 74.996L61.9901 74.9977Z" fill="url(#paint1_linear_1_49)" stroke="#F8F8F8" stroke-miterlimit="10"/>
<path d="M54.4888 69.683C53.8298 70.4561 54.4231 71.092 54.4103 71.739C54.1631 72.4005 53.5494 72.3979 52.9987 72.4584C51.0791 72.6673 49.1586 72.8684 47.2356 73.0415C42.8815 73.4336 38.5249 73.8087 34.1699 74.1897C32.9195 74.2996 31.6979 74.4292 30.693 75.3532C30.2463 75.7658 29.8713 75.649 29.3658 75.1751C29.1595 74.9816 28.995 74.7131 28.7546 74.5912C28.0496 74.2331 27.6669 73.6484 27.3643 72.9494C27.1461 72.4448 26.8231 71.9854 26.5315 71.479C25.5436 72.0552 25.7115 72.9494 25.7499 73.7072C25.385 74.0098 25.1165 73.8905 24.9597 73.6433C24.178 72.4175 23.7765 71.0784 23.8294 69.6122C23.8575 68.828 24.2709 68.2859 24.9776 68.0941C26.2016 67.7608 27.2791 67.2127 28.1852 66.3288C28.5986 65.9273 29.1586 65.8804 29.6257 66.0492C31.0493 66.5606 32.4387 66.2768 33.8205 65.9691C35.6599 65.5608 37.5199 65.4201 39.3995 65.3724C40.4726 65.346 41.5458 65.1934 42.6139 65.057C45.1498 64.7331 47.6857 64.4458 50.2463 64.3904C51.2641 64.3682 52.2793 64.2199 53.2962 64.1347C54.0847 64.0665 54.7138 63.7639 55.059 62.9984C55.117 62.8706 55.2713 62.787 55.4247 62.6421C55.5457 62.8271 55.6855 62.9498 55.7077 63.0913C55.8321 63.8756 55.9941 64.6615 56.0214 65.4508C56.116 68.2518 56.503 70.9914 57.5267 73.6194C57.598 73.7731 57.6294 73.9422 57.6179 74.1113C57.5778 74.264 57.4878 74.399 57.3622 74.4948C57.3139 74.5205 57.2599 74.5333 57.2052 74.5319C57.1506 74.5306 57.0972 74.5152 57.0502 74.4872C56.8133 74.2587 56.5234 74.0345 56.4007 73.7464C56.0691 72.9639 55.804 72.1533 55.5295 71.3477C55.3292 70.757 55.1519 70.1604 54.4888 69.683Z" fill="#1F1F1F" stroke="#F8F8F8" stroke-miterlimit="10"/>
<path d="M88.3288 153.52C88.229 154.186 88.1915 154.871 88.0057 155.512C87.9068 155.857 87.559 156.133 87.3118 156.431C86.9896 156.819 86.5856 157.156 86.3375 157.586C84.6395 160.53 82.8751 163.438 81.5479 166.584C80.733 168.514 79.7979 170.392 78.954 172.309C78.6633 172.97 78.2721 173.452 77.5791 173.713C77.1572 173.883 76.7619 174.113 76.4053 174.395C75.6961 174.931 74.9656 175.202 74.039 175.085C73.0877 174.965 72.6675 175.311 72.5643 176.286C72.4876 177.008 72.1859 177.565 71.8049 178.136C71.3428 178.832 70.9525 179.579 70.4487 180.455C70.1972 180.11 69.9466 179.916 69.9065 179.688C69.7139 178.574 69.4607 177.452 69.442 176.329C69.3798 172.701 69.4642 169.069 69.3823 165.441C69.3431 163.699 70.0165 162.226 70.7948 160.789C71.2508 159.948 72.0154 159.29 72.8942 158.853C74.1601 158.223 75.4293 157.588 76.7386 157.062C78.1024 156.511 79.5047 156.049 80.9154 155.613C81.5564 155.416 82.2426 155.335 82.9151 155.281C83.8528 155.205 84.7052 155.461 85.405 156.145C85.5618 156.3 85.7579 156.413 86.0324 156.617C86.3256 156.352 86.6597 156.142 86.872 155.845C87.3988 155.11 87.8702 154.334 88.3594 153.569L88.3288 153.52Z" fill="#F8F8F8" stroke="#F8F8F8" stroke-miterlimit="10"/>
<path d="M130.161 95.1527C130.03 92.7719 129.874 90.392 129.774 88.0103C129.704 86.3354 131.641 85.1224 133.115 85.9126C133.401 86.0872 133.609 86.3648 133.696 86.6883C133.807 87.1767 133.782 87.7009 133.782 88.2107C133.796 91.5044 133.708 94.8023 133.836 98.0909C133.987 101.947 134.32 105.796 134.581 109.647C134.773 112.479 134.978 115.31 135.173 118.14C135.271 119.556 135.36 120.972 135.453 122.388C135.709 126.24 135.937 130.093 136.22 133.942C136.433 136.83 136.721 139.712 136.965 142.598C137.035 143.45 137.05 144.302 137.126 145.146C137.211 146.133 136.374 146.987 135.538 147.027C134.657 147.068 133.796 146.388 133.578 145.447C133.526 145.168 133.495 144.886 133.487 144.602C133.101 138.767 132.727 132.931 132.331 127.097C132.108 123.811 131.835 120.529 131.605 117.244C131.38 114.015 131.187 110.784 130.968 107.555C130.91 106.703 130.786 105.862 130.728 105.013C130.578 102.805 130.441 100.596 130.316 98.385C130.254 97.3084 130.236 96.2292 130.199 95.151L130.161 95.1527Z" fill="url(#paint2_linear_1_49)" stroke="#F8F8F8" stroke-miterlimit="10"/>
<path d="M140.646 93.1677C140.561 96.6345 140.774 100.083 141.121 103.531C141.348 105.787 141.415 108.057 141.586 110.318C142.012 115.916 142.363 121.52 142.927 127.104C143.183 129.651 143.219 132.196 143.396 134.739C143.609 137.794 143.921 140.842 144.168 143.894C144.259 145.024 144.324 146.158 144.331 147.29C144.336 148.095 143.959 148.523 143.308 148.654C142.37 148.84 141.54 148.555 141.253 147.87C141.086 147.45 140.982 147.007 140.944 146.556C140.822 145.315 140.715 144.07 140.659 142.824C140.459 138.404 140.147 133.992 139.721 129.589C139.454 126.767 139.318 123.932 139.105 121.104C138.849 117.768 138.582 114.434 138.318 111.098C138.291 110.757 138.244 110.416 138.233 110.08C138.148 107.642 137.824 105.222 137.636 102.793C137.323 98.6675 136.999 94.535 137.117 90.3872C137.148 89.3097 137.167 88.2306 137.146 87.1532C137.127 86.1431 137.669 85.5967 138.539 85.2455C139.608 84.8193 140.892 85.5583 140.854 86.7082C140.827 87.5606 140.847 88.413 140.817 89.2603C140.777 90.5619 140.707 91.8644 140.646 93.1677Z" fill="url(#paint3_linear_1_49)" stroke="#F8F8F8" stroke-miterlimit="10"/>
<path d="M147.721 96.8325C147.697 100.583 148.025 104.316 148.336 108.053C148.877 114.559 149.29 121.077 149.804 127.586C150.3 133.868 150.862 140.144 151.381 146.424C151.474 147.554 151.544 148.691 151.528 149.824C151.513 150.902 150.904 151.377 149.882 151.264C149.315 151.201 148.909 150.907 148.753 150.372C148.612 149.882 148.521 149.378 148.482 148.869C148.196 145.19 147.942 141.509 147.651 137.831C147.432 135.059 147.168 132.29 146.935 129.519C146.765 127.425 146.606 125.33 146.438 123.236C146.161 119.784 145.871 116.331 145.608 112.88C145.462 110.956 145.368 109.027 145.23 107.101C145.186 106.481 145.06 105.865 145.006 105.245C144.509 99.4716 144.127 93.6931 144.341 87.8925C144.349 87.6649 144.349 87.4373 144.371 87.2105C144.481 86.0513 145.235 85.2611 146.147 85.3412C147.146 85.4265 147.872 86.2107 147.861 87.2941C147.843 89.1106 147.757 90.927 147.726 92.7444C147.703 94.1074 147.721 95.4704 147.721 96.8325Z" fill="url(#paint4_linear_1_49)" stroke="#F8F8F8" stroke-miterlimit="10"/>
<path d="M78.1412 107.241C78.8385 107.287 79.1394 106.348 79.8631 106.955C79.6491 107.206 79.4147 107.438 79.2297 107.707C79.0098 108.027 79.1053 108.41 79.4573 108.565C79.8094 108.72 80.1921 108.81 80.5561 108.926C80.626 109.388 80.2739 109.388 80.025 109.437C79.2783 109.58 78.7916 109.041 78.3262 108.665C77.8838 108.835 77.9136 109.152 77.8821 109.416C77.7747 110.318 77.6775 111.22 77.5991 112.124C77.2717 115.912 76.9623 119.701 76.6282 123.488C76.2872 127.331 75.9181 131.171 75.5823 135.014C75.1845 139.591 74.7983 144.17 74.4238 148.75C74.3718 149.39 74.3037 149.999 73.8041 150.455C73.3993 150.827 72.9398 150.972 72.396 150.762C71.9092 150.574 71.691 150.211 71.68 149.715C71.6618 149.261 71.6672 148.805 71.6961 148.351C72.0252 144.165 72.3695 139.98 72.6994 135.793C73.0949 130.764 73.4666 125.723 73.8775 120.691C74.0914 118.09 74.3753 115.491 74.6267 112.897C74.6591 112.556 74.6872 112.219 74.7171 111.88C75.0256 108.319 75.3547 104.759 75.6343 101.195C75.7587 99.6115 75.8474 98.0201 75.8371 96.4337C75.8184 93.7665 75.7084 91.1002 75.636 88.4339C75.6223 87.9224 75.578 87.411 75.5874 86.8996C75.6121 85.5945 77.1652 84.9262 78.2486 85.6286C78.6748 85.9074 78.7916 86.3506 78.8402 86.8024C78.9689 87.9864 79.176 89.1755 79.153 90.3586C79.0899 93.5347 78.966 96.7093 78.7814 99.8826C78.639 102.314 78.3645 104.73 78.1412 107.241Z" fill="url(#paint5_linear_1_49)" stroke="#F8F8F8" stroke-miterlimit="10"/>
<path d="M89.9424 94.4066C89.8571 92.2491 89.7761 90.4352 89.725 88.6213C89.7073 87.9995 89.7358 87.3772 89.8102 86.7596C89.8716 86.2635 90.2228 85.9652 90.7155 85.8688C90.9375 85.8227 91.1638 85.8001 91.3906 85.8015C92.4305 85.8194 93.1193 86.4698 93.0954 87.5063C93.0409 90.2247 92.9471 92.9421 92.8678 95.6596C92.8636 95.8301 92.8371 96.0006 92.844 96.171C93.0289 100.551 92.4425 104.895 92.1731 109.25C91.8824 113.946 91.3701 118.627 90.961 123.315C90.9073 123.936 90.8817 124.561 90.863 125.184C90.8118 126.889 90.6746 128.574 90.4708 130.267C90.1606 132.855 90.0651 135.467 89.8537 138.069C89.6755 140.273 89.4659 142.475 89.2613 144.676C89.2427 144.959 89.1894 145.239 89.1027 145.508C88.8308 146.285 88.0347 146.728 87.2027 146.598C86.5208 146.49 86.0946 145.997 86.0869 145.12C86.0801 144.158 86.1483 143.193 86.2267 142.233C86.3972 140.2 86.6094 138.169 86.7671 136.134C87.1865 130.706 87.582 125.276 87.9937 119.847C88.3915 114.644 88.7933 109.442 89.1991 104.241C89.3482 102.376 89.5954 100.518 89.7386 98.6524C89.8588 97.1283 89.8887 95.5957 89.9424 94.4066Z" fill="url(#paint6_linear_1_49)" stroke="#F8F8F8" stroke-miterlimit="10"/>
<path d="M86.07 95.7383C85.9848 97.9418 85.7699 101.05 85.4196 104.155C85.0786 107.198 84.8647 110.256 84.6141 113.309C84.2731 117.493 84.0225 121.686 83.5912 125.861C83.1539 130.096 82.8956 134.341 82.5598 138.583C82.3629 141.07 82.1089 143.554 81.8668 146.038C81.8317 146.49 81.7509 146.937 81.6255 147.373C81.3988 148.097 80.7339 148.521 80.0759 148.432C79.4178 148.344 78.9336 147.759 78.9243 146.973C78.9157 146.35 78.9626 145.725 79.0095 145.103C79.226 142.162 79.4357 139.221 79.6752 136.281C80.0512 131.644 80.4569 127.011 80.8311 122.373C81.1184 118.811 81.3545 115.245 81.652 111.683C81.9733 107.839 82.3705 104.002 82.6749 100.155C82.8394 98.0654 82.9306 95.965 82.9553 93.8681C82.9783 91.6519 82.8777 89.4424 82.83 87.2296C82.8257 87.0028 82.8027 86.7761 82.8078 86.5477C82.8215 86.0149 82.9246 85.5145 83.4898 85.2904C84.1095 85.044 84.7036 85.0611 85.2415 85.5231C85.6464 85.8717 85.9234 86.2902 85.9779 86.8221C86.0299 87.3293 86.0632 87.8408 86.0683 88.3496C86.0751 90.5088 86.07 92.6654 86.07 95.7383Z" fill="url(#paint7_linear_1_49)" stroke="#F8F8F8" stroke-miterlimit="10"/>
<path d="M73.5052 279.869C74.4701 281.453 75.4615 283.023 76.3863 284.632C76.7136 285.203 76.8782 285.867 77.1007 286.445C77.9531 286.667 78.3903 285.917 78.999 285.796C79.8565 285.939 80.3628 286.453 80.6884 287.151C81.043 287.904 81.5408 288.476 82.3591 288.743C82.9558 288.937 83.2073 289.425 83.4025 289.995C83.7145 290.906 84.1168 291.785 84.4424 292.692C84.8448 293.812 85.2164 294.944 85.5846 296.075C85.6937 296.409 85.704 296.773 85.4056 297.018C85.1073 297.264 84.7663 297.139 84.439 297.018C83.9787 296.848 83.5116 296.69 82.9388 296.727C83.0888 296.856 83.2218 297.015 83.3914 297.108C84.2353 297.572 85.109 297.984 85.9307 298.483C86.4967 298.824 86.6689 299.335 86.4123 299.582C86.0288 299.952 85.6605 299.662 85.3195 299.497C84.4671 299.095 80.6143 295.676 80.1608 294.894C79.3621 293.524 78.5489 292.157 77.8303 290.745C76.5449 288.218 75.2995 285.67 74.0942 283.103C73.7123 282.29 73.5086 281.391 73.2486 280.523C73.1915 280.331 73.2401 280.106 73.2401 279.896C73.3287 279.888 73.4165 279.878 73.5052 279.869Z" fill="#F8F8F8" stroke="#F8F8F8" stroke-miterlimit="10"/>
<path d="M82.4743 79.9199C82.4743 79.5789 82.4666 79.2431 82.4743 78.9046C82.5033 77.7965 82.8366 77.5289 83.9703 77.7292C84.303 77.7883 84.6305 77.8738 84.9497 77.9849C85.4134 78.146 85.7245 78.4699 85.7442 78.9762C85.7834 79.9915 85.8234 81.0075 85.8038 82.0219C85.7927 82.5981 85.1134 83.188 84.434 83.3252C83.8109 83.4497 83.1349 83.1548 82.8784 82.5743C82.7202 82.2136 82.619 81.8306 82.5783 81.4389C82.528 80.9359 82.5664 80.4245 82.5664 79.9165L82.4743 79.9199Z" fill="#F8F8F8" stroke="#F8F8F8" stroke-miterlimit="10"/>
<path d="M137.179 81.2574C137.23 79.6071 137.564 79.279 139.175 79.3122C140.405 79.3369 140.901 79.8236 140.952 81.0596C141.015 82.5565 140.165 83.5197 138.802 83.495C137.83 83.4771 137.237 82.9085 137.182 81.9334C137.168 81.7083 137.179 81.4833 137.179 81.2574Z" fill="#F8F8F8" stroke="#F8F8F8" stroke-miterlimit="10"/>
<path d="M131.719 84.1109C130.457 84.1305 129.895 83.5039 130.02 82.2995C130.042 82.0175 130.125 81.7437 130.263 81.497C130.402 81.2503 130.592 81.0366 130.821 80.8709C131.616 80.2742 132.477 80.183 133.178 80.6714C133.834 81.1266 133.816 81.8332 133.745 82.5083C133.664 83.2883 133.021 83.8773 132.16 84.052C131.995 84.0853 131.825 84.0972 131.719 84.1109Z" fill="#F8F8F8" stroke="#F8F8F8" stroke-miterlimit="10"/>
<path d="M92.947 82.653C92.9734 83.392 92.6299 83.8276 91.8994 83.9529C91.1996 84.0723 90.5091 84.0382 90.0446 83.4244C89.5169 82.7323 89.5331 81.9361 89.8894 81.1792C89.99 80.9669 90.302 80.7794 90.5492 80.7266C91.8517 80.4436 92.9027 81.3071 92.947 82.653Z" fill="#F8F8F8" stroke="#F8F8F8" stroke-miterlimit="10"/>
<path d="M145.733 152.334C145.717 153.241 144.993 153.982 144.147 153.953C143.227 153.925 142.454 153.086 142.506 152.168C142.558 151.23 143.256 150.523 144.102 150.548C145.047 150.586 145.75 151.352 145.733 152.334ZM144.103 153.108C144.227 152.964 144.529 152.762 144.596 152.499C144.701 152.105 144.153 151.703 143.707 151.775C143.405 151.823 143.208 152.169 143.265 152.547C143.322 152.925 143.583 153.145 144.103 153.108Z" fill="#F8F8F8" stroke="#F8F8F8" stroke-miterlimit="10"/>
<path d="M73.0345 277.84C72.9126 277.713 72.7166 277.589 72.6382 277.414C72.0901 276.188 71.1132 272.453 71.0638 271.482C71.1533 271.502 71.3067 271.501 71.3237 271.548C72.0148 273.442 72.6947 275.34 73.3636 277.242C73.4087 277.372 73.3081 277.556 73.2596 277.71C73.2485 277.747 73.1735 277.763 73.0345 277.84Z" fill="#F8F8F8" stroke="#F8F8F8" stroke-miterlimit="10"/>
<path d="M142.552 107.088C143.169 106.524 143.644 106.427 144.105 106.793C144.552 107.15 144.9 107.598 144.817 108.243C144.661 109.453 143.632 109.981 142.592 109.351C142.317 109.18 142.12 108.892 141.904 108.676C142.085 108.245 142.272 108.542 142.447 108.571C142.776 108.624 143.108 108.702 143.438 108.697C143.779 108.697 144.15 108.578 144.228 108.185C144.305 107.793 144.051 107.549 143.7 107.425C143.391 107.32 143.069 107.24 142.552 107.088Z" fill="#F8F8F8" stroke="#F8F8F8" stroke-miterlimit="10"/>
<path d="M150.091 106.743C149.58 104.492 149.401 102.18 149.559 99.8773C150.287 102.127 149.914 104.463 150.091 106.743Z" fill="#F8F8F8" stroke="#F8F8F8" stroke-miterlimit="10"/>
<path d="M78.9968 150.705C79.0369 151.131 78.6746 151.139 78.4897 151.307C77.8776 151.863 77.9177 152.352 78.6456 152.756C78.9329 152.915 79.2636 152.993 79.7026 153.156C79.4827 153.327 79.3327 153.551 79.1733 153.558C78.7931 153.575 78.3754 153.571 78.0345 153.429C77.4787 153.197 77.2383 152.358 77.4591 151.647C77.5255 151.433 77.6388 151.236 77.7907 151.071C77.9456 150.909 78.1384 150.789 78.3516 150.721C78.5493 150.658 78.7786 150.705 78.9968 150.705Z" fill="#F8F8F8" stroke="#F8F8F8" stroke-miterlimit="10"/>
<path d="M70.4867 269.896L70.4168 268.562C70.8174 269.093 70.8549 269.392 70.4867 269.896Z" fill="#F8F8F8" stroke="#F8F8F8" stroke-miterlimit="10"/>
<path d="M69.5841 265.366L69.6438 265.85C69.5948 265.768 69.5518 265.683 69.5151 265.595C69.5057 265.554 69.5406 265.499 69.5841 265.366Z" fill="#F8F8F8" stroke="#F8F8F8" stroke-miterlimit="10"/>
<path d="M68.5692 260.323L68.5292 260.749L68.5385 260.318L68.5692 260.323Z" fill="#F8F8F8" stroke="#F8F8F8" stroke-miterlimit="10"/>
<path d="M149.609 92.5396L149.681 92.6322L149.572 92.6957L149.609 92.5396Z" fill="#F8F8F8" stroke="#F8F8F8" stroke-miterlimit="10"/>
<path d="M74.5972 81.6541C74.5494 81.6319 74.4821 81.6217 74.46 81.5842C74.4378 81.5467 74.4719 81.4879 74.4804 81.4384C74.5529 81.4725 74.6253 81.5075 74.6986 81.5416L74.5972 81.6541Z" fill="#F8F8F8" stroke="#F8F8F8" stroke-miterlimit="10"/>
<path d="M69.2379 263.612L69.1638 263.666L69.1646 263.554L69.2379 263.612Z" fill="#F8F8F8" stroke="#F8F8F8" stroke-miterlimit="10"/>
<path d="M134.443 177.35C134.42 177.606 134.421 177.724 134.398 177.833C134.329 178.174 134.246 178.503 133.844 178.594C133.562 178.658 133.23 178.407 133.176 177.973C133.078 177.164 132.812 176.456 132.28 175.83C132.157 175.684 132.147 175.403 132.169 175.189C132.183 175.06 132.34 174.922 132.469 174.839C132.52 174.822 132.575 174.818 132.628 174.828C132.681 174.838 132.73 174.861 132.772 174.895C133.258 175.431 133.759 175.958 134.185 176.54C134.37 176.791 134.388 177.164 134.443 177.35Z" fill="#F8F8F8" stroke="#F8F8F8" stroke-miterlimit="10"/>
<path d="M132.347 173.078L132.474 173.07L132.421 173.179L132.347 173.078Z" fill="#F8F8F8" stroke="#F8F8F8" stroke-miterlimit="10"/>
<path d="M134.785 179.497L134.785 179.336L135.015 179.421C134.984 179.464 134.962 179.531 134.922 179.543C134.882 179.555 134.828 179.511 134.785 179.497Z" fill="#F8F8F8" stroke="#F8F8F8" stroke-miterlimit="10"/>
<path d="M113.649 330.849L121.711 330.849C122.68 330.85 123.621 330.527 124.385 329.932C125.15 329.337 125.693 328.504 125.93 327.564L130.67 308.791L129.495 309.072L124.856 326.547C124.61 327.475 124.063 328.296 123.301 328.881C122.539 329.466 121.605 329.783 120.644 329.781L114.677 329.771L113.649 330.849Z" fill="#F8F8F8" stroke="#F8F8F8" stroke-miterlimit="10"/>
<path d="M150.555 86.4079L149.903 91.1405C149.684 92.7251 149.586 94.3239 149.608 95.9233L149.638 98.2035C149.643 98.4968 149.658 98.7894 149.683 99.0815L152.424 130.257L155.903 159.981C156.042 161.176 156.107 162.378 156.098 163.581C156.067 167.426 155.896 176.816 155.007 188.711C154.86 190.672 156.599 200.949 156.599 200.949" fill="#F8F8F8"/>
<path d="M150.552 86.4079C150.322 88.5969 149.892 91.4056 149.794 93.5511C149.721 95.0275 149.794 96.5516 149.832 98.0339C149.848 98.4601 149.879 98.9366 149.923 99.3637C150.349 103.561 151.055 110.809 151.457 115.019C151.883 119.388 152.468 125.824 152.88 130.232C152.945 130.776 153.135 132.34 153.198 132.91C154.136 141.015 155.679 153.341 156.478 161.508C156.594 163.916 156.459 166.327 156.41 168.735C156.201 175.474 155.765 182.214 155.206 188.931L155.199 189.146C155.199 189.218 155.204 189.293 155.207 189.367L155.224 189.81C155.407 192.342 155.757 194.87 156.094 197.388C156.254 198.576 156.421 199.763 156.594 200.949C156.373 199.771 156.158 198.591 155.95 197.41C155.524 194.895 155.087 192.381 154.838 189.838C154.82 189.537 154.786 189.208 154.793 188.92C155.162 182.192 155.493 175.452 155.601 168.718C155.62 166.331 155.736 163.945 155.601 161.565C154.919 155.052 153.392 143.053 152.687 136.581C152.465 134.542 152.061 131.455 151.891 129.432C151.099 120.01 150.231 109.285 149.524 99.8538C149.479 99.3074 149.438 98.6008 149.438 98.0424C149.445 96.5601 149.406 95.0189 149.532 93.5383C149.703 91.3451 150.235 88.5824 150.555 86.4113L150.552 86.4079Z" fill="#F8F8F8"/>
<path d="M70.4878 269.897L67.2614 240.799C66.7004 235.741 66.5618 230.646 66.8472 225.565C67.4993 213.947 68.5852 192.616 68.569 191.431L68.5383 189.151C68.5338 188.858 68.519 188.565 68.494 188.273L65.7552 157.1L66.6204 127.522C66.4808 126.327 66.4156 125.124 66.4252 123.921C66.4559 120.078 66.6272 110.687 67.5163 98.7916C67.6629 96.831 66.3894 82.3401 66.3894 82.3401" fill="#F8F8F8"/>
<path d="M70.4878 269.897C69.3251 260.537 68.1971 251.174 67.1037 241.807C66.362 235.938 66.1796 230.011 66.559 224.107C67.0799 213.479 67.6518 202.498 68.0934 191.886C68.1121 191.27 68.0823 190.318 68.0772 189.697C68.0778 189.119 68.0494 188.542 67.9919 187.967C67.073 177.676 66.1709 167.383 65.2856 157.087C65.4884 150.503 65.7791 141.488 65.9913 134.904L66.2419 127.51L66.2419 127.564C66.0135 125.696 66.0527 123.747 66.0962 121.866C66.2581 114.319 66.6664 106.778 67.281 99.255C67.3782 98.3174 67.3202 97.3942 67.2861 96.4523C67.0645 91.7453 66.7168 87.0434 66.3826 82.3424C66.8489 87.0306 67.3117 91.7283 67.6228 96.4353C67.6748 97.3729 67.7507 98.3446 67.6689 99.284C67.1839 106.806 66.8778 114.34 66.7909 121.873C66.767 123.727 66.744 125.64 66.9861 127.473C66.9955 127.482 66.8037 134.899 66.8063 134.924C66.6358 141.516 66.3971 150.523 66.2147 157.11C67.1122 167.084 68.0465 177.695 68.9279 187.882C68.9865 188.481 69.015 189.081 69.0131 189.683C69.0131 190.29 69.0455 191.302 69.0242 191.914C68.6176 201.362 68.0397 211.154 67.5044 220.616C67.2128 225.233 66.8906 230.096 67.1046 234.716C67.1489 235.89 67.2154 237.063 67.304 238.235C68.3082 248.792 69.4845 259.336 70.4861 269.896L70.4878 269.897Z" fill="#F8F8F8"/>
<defs>
<linearGradient id="paint0_linear_1_49" x1="114.675" y1="154.499" x2="114.675" y2="241.999" gradientUnits="userSpaceOnUse">
<stop stop-color="#F8F8F8"/>
<stop offset="1"/>
</linearGradient>
<linearGradient id="paint1_linear_1_49" x1="111.561" y1="1.00001" x2="111.561" y2="86.3807" gradientUnits="userSpaceOnUse">
<stop stop-color="#F8F8F8"/>
<stop offset="1"/>
</linearGradient>
<linearGradient id="paint2_linear_1_49" x1="133.452" y1="85.6654" x2="133.452" y2="147.029" gradientUnits="userSpaceOnUse">
<stop/>
<stop offset="1" stop-color="#DFDFDF"/>
</linearGradient>
<linearGradient id="paint3_linear_1_49" x1="140.712" y1="85.1235" x2="140.712" y2="148.71" gradientUnits="userSpaceOnUse">
<stop/>
<stop offset="1" stop-color="#DFDFDF"/>
</linearGradient>
<linearGradient id="paint4_linear_1_49" x1="147.905" y1="85.3356" x2="147.905" y2="151.28" gradientUnits="userSpaceOnUse">
<stop/>
<stop offset="1" stop-color="#DFDFDF"/>
</linearGradient>
<linearGradient id="paint5_linear_1_49" x1="76.1173" y1="85.3448" x2="76.1173" y2="150.859" gradientUnits="userSpaceOnUse">
<stop/>
<stop offset="1" stop-color="#DFDFDF"/>
</linearGradient>
<linearGradient id="paint6_linear_1_49" x1="89.5912" y1="85.8015" x2="89.5912" y2="146.62" gradientUnits="userSpaceOnUse">
<stop/>
<stop offset="1" stop-color="#DFDFDF"/>
</linearGradient>
<linearGradient id="paint7_linear_1_49" x1="82.4975" y1="85.1327" x2="82.4975" y2="148.444" gradientUnits="userSpaceOnUse">
<stop/>
<stop offset="1" stop-color="#DFDFDF"/>
</linearGradient>
</defs>
</svg>
